<svg id="char1" xmlns="http://www.w3.org/2000/svg" width="626.844" height="1246.062" viewBox="0 0 626.844 1246.062">
  <g id="Group_176" data-name="Group 176" transform="translate(265.934 595.487)">
    <path id="Path_43" data-name="Path 43" d="M549.98,891.154l7.624,74.224,28.512,1.773-4.539-80.5Z" transform="translate(-451.638 -353.11)" fill="#511729"/>
    <path id="Path_44" data-name="Path 44" d="M576.979,899.69s14.93,22.164,39.151,31.136c24.257,8.972,45.96,19.824,43.194,34.576,0,0-37.874,15.675-96.246-8.05l-.39,6.277-39.044-4.185,3.262-51.989,32.378,4.326-2.057-5.284Z" transform="translate(-431.684 -319.906)" fill="#221b1b"/>
    <path id="Path_45" data-name="Path 45" d="M589.021,924.223c52.556,17.093,67.1,2.7,70.288,1.809a10.318,10.318,0,0,1,.035,3.9s-37.874,15.675-96.246-8.05l-.39,6.277-39.045-4.185.674-10.355C538.237,915.322,550.224,911.634,589.021,924.223Z" transform="translate(-431.704 -284.436)" fill="#020407"/>
    <path id="Path_46" data-name="Path 46" d="M547.732,864.95,597.31,920.7l-17.944,22.235-56.315-57.7Z" transform="translate(-367.329 -408.364)" fill="#511729"/>
    <path id="Path_47" data-name="Path 47" d="M530.042,905.4s6.277,25.994-3.476,49.932-18.122,49.364-5.39,57.308c0,0,38.867-19.469,60.784-78.515l4.894,3.937,23.3-31.6-40.57-32.732L550.93,900.54l-2.518-5.107Z" transform="translate(-350.596 -386.008)" fill="#221b1b"/>
    <path id="Path_48" data-name="Path 48" d="M559.571,945.218c-19.008,32.981-42.059,45.393-44.861,47.166a10.617,10.617,0,0,0,2.837,2.66s38.867-19.469,60.784-78.515l4.894,3.937,23.3-31.6L596.31,880.64C588.189,892.059,577.8,913.585,559.571,945.218Z" transform="translate(-346.967 -368.413)" fill="#020407"/>
    <path id="Path_49" data-name="Path 49" d="M535.771,1039.2,626.2,1159.415,615.776,1319c53.691,11.7,69.118-7.447,69.118-7.447l4.646-67.947,13.618,18.157c39.9-23.547,40.605-53.194,40.605-53.194l-47.059-70.5L727.91,737.654l-4.4-.106-.567,2.34s-13.9,10-62.131,11.915c-63.089,2.518-104.4-13.192-110.361-15.6L533.431,921.352C527.828,965.184,520.558,1025.01,535.771,1039.2Zm66.21-43.088L620.422,827.8l27.8-4.894-14.434,220.828Z" transform="translate(-526.69 -736.2)" fill="#6c736b" fill-rule="evenodd"/>
    <path id="Path_50" data-name="Path 50" d="M557.617,747.181c-14.965-3.937-22.235-9.114-22.413-9.185-4.4-1.773-3.795,3.369-4.291,8.795-.6,7.2.426,11.029,4.362,12.518.709.248,4.185,4.646,19.115,9.043C555.454,761.3,556.553,754.238,557.617,747.181Zm107.346,6.206c-16.668,1.844-34.9,2.163-54.613,1.525a236.866,236.866,0,0,1-40.357-4.858,116.152,116.152,0,0,1-1.383,21.916,223.779,223.779,0,0,0,41.421,5.213c6.454.213,12.731.248,18.866.142a324.67,324.67,0,0,0,38.3-2.731A124.322,124.322,0,0,1,664.964,753.387Zm48.8-1.667c-.851-5.355-1.419-10.142-5.78-8.369a150.558,150.558,0,0,1-32.13,8.582c.426,7.022,1.312,13.972,2.2,20.959a153.734,153.734,0,0,0,33.69-10.107C714.789,761.437,714.647,757.181,713.761,751.72Z" transform="translate(-511.654 -732.535)" fill="#040609"/>
    <path id="Path_51" data-name="Path 51" d="M552.24,741.51l.5,26.526,38.725,2.518-.532-28.583Zm32.591,24.115-25.6-1.667-.354-17.519,25.6.319Z" transform="translate(-464.998 -722.679)" fill="#9fabaa" fill-rule="evenodd"/>
  </g>
  <g id="Group_177" data-name="Group 177" transform="translate(0)">
    <path id="Path_126" data-name="Path 126" d="M542.58,598.238l2.27,94.083,56.705-25.356-1.773-96.885Z" transform="translate(-178.446 -322.556)" fill="#eab7a0"/>
    <path id="Path_127" data-name="Path 127" d="M621.589,515.828C675.458,528.134,674,565.122,674,565.122s-1.667,28.583-2.731,62.628c5-6.88,13.405-9.717,22.093-6.029,18.335,7.837,4.788,65.642-23.122,60.642-1.17,16.136-2.766,28.689-4.823,33.051-7.837,16.419-42.272,41.456-72.805,45.393-30.5,3.9-68.869-16.455-68.869-52.45s-.461-169.3-.461-169.3S532.365,495.473,621.589,515.828Z" transform="translate(-210.219 -474.486)" fill="#ffc8ac"/>
    <path id="Path_128" data-name="Path 128" d="M612.038,552.941c0,7.837,3.475,14.185,7.8,14.185s7.8-6.348,7.8-14.185c0-7.873-3.476-14.221-7.8-14.221S612.038,545.068,612.038,552.941Zm-65.748,3.121c0,7.837,3.475,14.221,7.8,14.221s7.8-6.383,7.8-14.221-3.475-14.221-7.8-14.221S546.29,548.224,546.29,556.061Z" transform="translate(-217.69 -402.408)" fill="#141821"/>
    <path id="Path_129" data-name="Path 129" d="M608.364,542.253s3.617.248,8.015.106c4.5-.106,9.894-.248,14.575-.106,1.135.177,2.341.142,3.4.354a23.561,23.561,0,0,1,3.227.568,26.015,26.015,0,0,1,6.029,1.915,41.739,41.739,0,0,1,4.859,2.376c1.277.674,2.163,1.029,2.163,1.029a16.823,16.823,0,0,0-.142-2.376,14.528,14.528,0,0,0-1.986-5.993,11.091,11.091,0,0,0-2.624-3.546,14.056,14.056,0,0,0-3.9-3.227,17.719,17.719,0,0,0-4.929-2.2,26.076,26.076,0,0,0-5.426-.993,29,29,0,0,0-5.32.319,20.758,20.758,0,0,0-4.859,1.241,27.365,27.365,0,0,0-7.518,4.149A19.892,19.892,0,0,0,608.364,542.253Zm-32.094,0a15.3,15.3,0,0,0-3.936-6.313,19.874,19.874,0,0,0-6.277-4.255,18.638,18.638,0,0,0-9.256-1.419,16.8,16.8,0,0,0-9.185,3.9,13.643,13.643,0,0,0-2.908,3.4,10.375,10.375,0,0,0-1.6,3.44,12.9,12.9,0,0,0-.745,5.426c.107,1.312.248,2.057.248,2.057s.78-.355,1.915-.958c1.1-.6,2.482-1.56,4.078-2.305a21.276,21.276,0,0,1,2.411-1.135,13.729,13.729,0,0,1,2.376-.851,21.05,21.05,0,0,1,4.681-.922,90.873,90.873,0,0,1,11.277-.107C573.043,542.395,576.27,542.253,576.27,542.253Z" transform="translate(-226.747 -424.204)" fill="#875e38"/>
    <path id="Path_130" data-name="Path 130" d="M531.729,586.835c14.327,0,21.526-36.633,11.774-41.563a7.586,7.586,0,0,0-3.582-.922c-7.979,0-14.469,13.547-14.824,27.909a8.914,8.914,0,0,1,1.312-.106c6.667,0,7.589,8.4,3.475,14.469A8.419,8.419,0,0,0,531.729,586.835Z" transform="translate(-62.873 -388.072)" fill="#f0a58d"/>
    <path id="Path_131" data-name="Path 131" d="M571.69,538.51a61.854,61.854,0,0,0-2.66,6.738c-.78,2.27-1.6,4.575-2.234,6.88-1.277,4.681-2.411,9.362-3.475,14.079-1.1,4.717-1.844,9.469-2.553,14.256-.709,4.752-1.525,9.5-2.057,14.327l-.071.78.638.319c5.851,2.766,11.738,5.426,17.7,7.873-5.461-3.44-11.064-6.667-16.7-9.788l.567,1.1c1.1-4.681,1.844-9.433,2.731-14.15.993-4.681,1.56-9.469,2.482-14.185.957-4.681,1.879-9.362,2.66-14.114.39-2.376,1.064-4.681,1.454-7.057C570.591,543.227,571.123,540.85,571.69,538.51Z" transform="translate(-210.819 -402.942)" fill="#f08f81"/>
    <path id="Path_132" data-name="Path 132" d="M530.932,574.96s32.378,51.563,138.235,10.852c1.915,19.682,18.086,33.583,18.086,33.583V654.5l-.071-.142c.036.745.036,1.49.071,2.27v13.121c-1.7,51.669-23.548,65.677-35.463,45.286-15.214-26.1-33.832-14.93-47.556-13.228-43.513-4.859-35,21.242-44.116,23.76-9.078,2.553-7.944-17.625-7.944-17.625-13.157,74.827,39.967,98.09,97.594,75.855,57.663-22.271,52.592-66.245,48.868-75.642-2.482-6.348-2.908-18.228-2.943-25.321l3.369-25.959s4.539-9.894,11.774-10.923c7.341-19.327,13.015-35.073,13.015-50.286,0-40.215-23.725-37.626-23.725-37.626a20.592,20.592,0,0,0-.922-3.582c-16.774-63.656-65.358-59.4-99.4-45.96a77.373,77.373,0,0,0-13.8,6.277c-3.334,1.7-6.383,3.44-9.043,5.071-29.824,18.193-42.485,10.6-42.485,10.6,2.021,6.064,12.128,10.107,12.128,10.107-17.7,0-19.717-12.625-19.717-12.625C518.8,551.2,539.479,573.47,550.65,574.96,538.45,577.442,530.932,574.96,530.932,574.96ZM631.576,760.537c-21.455,2.057-17.7-18.724-17.7-18.724l-9.61,1.525s6.064,26.81-18.192,17.7c-24.292-9.114-17.2-31.846-14.682-34.9,0,0,17.377.887,30.534-9.433,0,0,16.632,9.256,39.258,2.376C641.187,719.081,662.926,757.487,631.576,760.537Z" transform="translate(-238.611 -500.282)" fill="#875e38" fill-rule="evenodd"/>
    <path id="Path_133" data-name="Path 133" d="M614.049,562.69s-33.938,46.6-65.819,10.887Z" transform="translate(-210.977 -341.373)" fill="#fff"/>
    <path id="Path_134" data-name="Path 134" d="M513.86,623.242s5.461,168.343,16.349,253.808c0,0,41.669,18.653,108.091,15.958,46.917-1.915,60.429-11.951,60.429-11.951L766,604.234s-33.832-16.419-105.325-16.313c0,0,.142-2.3-16.065,6.313C632.2,600.794,627.945,645.8,627.945,645.8s-2.411-45.18-9.433-48.9c-10.816-5.709-8.866-4.5-17.767-6.88-26.952,1.88-54.968,10.072-86.352,15.249Z" transform="translate(-241.043 -277.84)" fill="#fff"/>
    <path id="Path_87" data-name="Path 87" d="M1262.822,585.964s-18.228,12.388-37.165-2.9l-6.549,12.388,13.356,22.1L1206.72,796.531l24.776,30.841,29.874-30.1-12.389-181.694,20.389-18.679-3.646-10.194" transform="translate(-855.768 -258.484)" fill="#1a2c37"/>
    <path id="Path_136" data-name="Path 136" d="M554.138,617.721s-2.695-72.451-8.724-72.451c-6.064,0-8.05,16.774-7.376,28.867.638,12.057-46.315-20.817-38.938,6.7,0,0-14.079,2.021-3.334,18.122,0,0-13.44,10.072,1.986,17.448,0,0-13.405,6.7,6.738,14.752,20.108,8.05,30.853,16.774,30.853,16.774Zm544.57,304.024s-50.783,104.722-122.879,129.972l-3.121-34.541s39.045-32.981,72.628-91.743C1078.919,866.635,1098.708,921.745,1098.708,921.745ZM990.545,1044.907s-39.648,33.867-30-36.278c0,0-52.13-10.887-5.355-14.824,0,0-51.35-20.356,3.617-10.391,0,0-40.818-46.421,19.5-.638,0,0,12.057,10.533,9.362,41.35Z" transform="translate(-490.34 -385.73)" fill="#ffc8ac"/>
    <path id="Path_137" data-name="Path 137" d="M977.356,658.8l101.885,209.515S1022.5,956.125,980.618,978.5L953.95,938.713s47.2-60.854,57.911-85.537l-63.2-94.012ZM751.989,736.751l-140.327,20S529.388,653.981,485.13,597.63l35.888-31.42s98.623,101.92,120.4,117.7L730.959,658.8Z" transform="translate(-452.397 -332.41)" fill="#fff"/>
    <path id="Path_138" data-name="Path 138" d="M1032.323,974.384,991.966,928.1l-15.5,17.7,38.016,46.492ZM523.855,621.563,565.737,581.1l-17.164-17.2L506.23,597.519Z" transform="translate(-480.306 -338.292)" fill="#c6400b"/>
    <path id="Path_135" data-name="Path 135" d="M537.39,599.264,554.8,637.741l19.682-29.718-30.959-20.6Zm101.14-.993L615.125,636,598.67,605.434l34.186-22.164Z" transform="translate(-197.016 -288.97)" fill="#eff2f1"/>
  </g>
</svg>
