<svg width="700" height="632" viewBox="0 0 700 632" fill="none" xmlns="http://www.w3.org/2000/svg">
<path d="M411.103 47.1321C410.157 46.1852 409.625 44.9013 409.625 43.5626C409.625 42.2238 410.157 40.9399 411.103 39.993L441.375 9.72105C442.322 8.7746 443.606 8.24292 444.945 8.24292C446.283 8.24292 447.567 8.7746 448.514 9.72105V9.72105C449.461 10.6679 449.992 11.9518 449.992 13.2906C449.992 14.6293 449.461 15.9132 448.514 16.8601L418.243 47.1321C417.774 47.6011 417.218 47.9731 416.605 48.227C415.993 48.4809 415.336 48.6115 414.673 48.6115C414.01 48.6115 413.354 48.4809 412.741 48.227C412.128 47.9731 411.572 47.6011 411.103 47.1321V47.1321Z" fill="url(#paint0_linear_205_2)"/>
<path d="M411.103 71.64C410.157 70.6932 409.625 69.4093 409.625 68.0706C409.625 66.7318 410.157 65.4479 411.103 64.5011L465.883 9.72205C466.352 9.25306 466.908 8.88101 467.521 8.62717C468.133 8.37333 468.79 8.24268 469.453 8.24268C470.116 8.24268 470.772 8.37333 471.385 8.62717C471.997 8.88101 472.554 9.25306 473.022 9.72205V9.72205C473.491 10.1908 473.863 10.7473 474.116 11.3597C474.37 11.9722 474.501 12.6286 474.501 13.2915C474.501 13.9545 474.37 14.6109 474.116 15.2234C473.863 15.8358 473.491 16.3923 473.022 16.8611L418.242 71.64C417.295 72.5865 416.011 73.1182 414.673 73.1182C413.334 73.1182 412.05 72.5865 411.103 71.64V71.64Z" fill="url(#paint1_linear_205_2)"/>
<path d="M104.39 616.049C102.435 614.094 101.337 611.442 101.337 608.677C101.337 605.912 102.435 603.26 104.39 601.305L117.399 588.298C119.354 586.343 122.006 585.245 124.771 585.245C127.536 585.245 130.188 586.343 132.143 588.298V588.298C134.098 590.253 135.196 592.905 135.196 595.67C135.196 598.435 134.098 601.087 132.143 603.042L119.135 616.049C118.167 617.018 117.018 617.786 115.753 618.31C114.488 618.834 113.132 619.104 111.763 619.104C110.393 619.104 109.037 618.834 107.772 618.31C106.507 617.786 105.358 617.018 104.39 616.049Z" fill="url(#paint2_linear_205_2)"/>
<g opacity="0.394">
<path opacity="0.394" d="M304.747 595.5C465.462 595.5 595.747 464.767 595.747 303.5C595.747 142.233 465.462 11.5 304.747 11.5C144.032 11.5 13.7471 142.233 13.7471 303.5C13.7471 464.767 144.032 595.5 304.747 595.5Z" stroke="#ED1E79" stroke-width="3"/>
</g>
<path d="M75.224 138.474C72.037 138.474 70.484 135.774 69.116 133.395C67.835 131.166 66.729 129.242 64.61 129.242C62.491 129.242 61.3849 131.166 60.1039 133.394C58.7349 135.776 57.184 138.474 53.995 138.474C50.806 138.474 49.256 135.774 47.887 133.395C46.606 131.166 45.5 129.242 43.381 129.242C41.262 129.242 40.1549 131.166 38.8739 133.395C37.5059 135.776 35.954 138.474 32.766 138.474C29.578 138.474 28.0269 135.774 26.6589 133.394C25.3779 131.166 24.2719 129.242 22.1539 129.242C20.0359 129.242 18.9279 131.166 17.6479 133.395C16.2779 135.776 14.7279 138.474 11.5399 138.474C8.35192 138.474 6.80088 135.774 5.43188 133.395C4.15088 131.166 3.04493 129.242 0.924927 129.242C0.679867 129.242 0.44489 129.145 0.271606 128.971C0.0983228 128.798 0.000976562 128.563 0.000976562 128.318C0.000976562 128.073 0.0983228 127.838 0.271606 127.665C0.44489 127.491 0.679867 127.394 0.924927 127.394C4.11293 127.394 5.66396 130.094 7.03296 132.473C8.31396 134.702 9.41992 136.627 11.5399 136.627C13.6599 136.627 14.7649 134.702 16.0459 132.473C17.4149 130.092 18.9669 127.394 22.1539 127.394C25.3409 127.394 26.8919 130.094 28.2599 132.473C29.5419 134.702 30.647 136.627 32.766 136.627C34.885 136.627 35.991 134.702 37.271 132.474C38.641 130.092 40.1909 127.394 43.3799 127.394C46.5689 127.394 48.1179 130.094 49.4879 132.473C50.7679 134.702 51.8749 136.627 53.9939 136.627C56.1129 136.627 57.22 134.702 58.501 132.473C59.87 130.092 61.4209 127.394 64.6089 127.394C67.7969 127.394 69.3469 130.094 70.7179 132.473C71.9979 134.702 73.104 136.627 75.224 136.627C77.344 136.627 78.45 134.702 79.73 132.473C81.1 130.092 82.651 127.394 85.839 127.394C86.084 127.394 86.319 127.491 86.4923 127.665C86.6656 127.838 86.7629 128.073 86.7629 128.318C86.7629 128.563 86.6656 128.798 86.4923 128.971C86.319 129.145 86.084 129.242 85.839 129.242C83.719 129.242 82.6129 131.166 81.3319 133.395C79.9639 135.776 78.413 138.474 75.224 138.474Z" fill="url(#paint3_linear_205_2)"/>
<path d="M537.223 542.08C534.036 542.08 532.483 539.38 531.115 537.001C529.834 534.772 528.728 532.848 526.609 532.848C524.49 532.848 523.384 534.772 522.103 537C520.734 539.382 519.183 542.08 515.994 542.08C512.805 542.08 511.255 539.38 509.886 537.001C508.605 534.772 507.499 532.848 505.38 532.848C503.261 532.848 502.154 534.772 500.873 537.001C499.505 539.382 497.953 542.08 494.765 542.08C491.577 542.08 490.026 539.38 488.658 537C487.377 534.772 486.271 532.848 484.153 532.848C482.035 532.848 480.927 534.772 479.647 537.001C478.277 539.382 476.727 542.08 473.539 542.08C470.351 542.08 468.8 539.38 467.431 537.001C466.15 534.772 465.044 532.848 462.924 532.848C462.679 532.848 462.444 532.751 462.271 532.577C462.097 532.404 462 532.169 462 531.924C462 531.679 462.097 531.444 462.271 531.271C462.444 531.097 462.679 531 462.924 531C466.112 531 467.663 533.7 469.032 536.079C470.313 538.308 471.419 540.233 473.539 540.233C475.659 540.233 476.764 538.308 478.045 536.079C479.414 533.698 480.966 531 484.153 531C487.34 531 488.891 533.7 490.259 536.079C491.541 538.308 492.646 540.233 494.765 540.233C496.884 540.233 497.99 538.308 499.27 536.08C500.64 533.698 502.19 531 505.379 531C508.568 531 510.117 533.7 511.487 536.079C512.767 538.308 513.874 540.233 515.993 540.233C518.112 540.233 519.219 538.308 520.5 536.079C521.869 533.698 523.42 531 526.608 531C529.796 531 531.346 533.7 532.717 536.079C533.997 538.308 535.103 540.233 537.223 540.233C539.343 540.233 540.449 538.308 541.729 536.079C543.099 533.698 544.65 531 547.838 531C548.083 531 548.318 531.097 548.491 531.271C548.665 531.444 548.762 531.679 548.762 531.924C548.762 532.169 548.665 532.404 548.491 532.577C548.318 532.751 548.083 532.848 547.838 532.848C545.718 532.848 544.612 534.772 543.331 537.001C541.963 539.382 540.412 542.08 537.223 542.08Z" fill="url(#paint4_linear_205_2)"/>
<path d="M203.582 519.172C205.228 520.819 206.153 523.053 206.153 525.382C206.153 527.711 205.228 529.944 203.582 531.591L150.924 584.249C149.277 585.896 147.043 586.821 144.714 586.821C142.385 586.821 140.152 585.896 138.505 584.249V584.249C136.858 582.602 135.933 580.369 135.933 578.04C135.933 575.711 136.858 573.477 138.505 571.83L191.163 519.172C191.978 518.357 192.946 517.71 194.012 517.268C195.077 516.827 196.219 516.6 197.372 516.6C198.526 516.6 199.668 516.827 200.733 517.268C201.798 517.71 202.767 518.357 203.582 519.172V519.172Z" fill="url(#paint5_linear_205_2)"/>
<path d="M170.008 500.794C171.654 502.441 172.579 504.675 172.579 507.004C172.579 509.333 171.654 511.566 170.008 513.213L74.7169 608.503C73.9017 609.319 72.9338 609.966 71.8684 610.407C70.803 610.849 69.6611 611.076 68.5079 611.076C67.3547 611.076 66.2127 610.849 65.1474 610.407C64.082 609.966 63.1141 609.319 62.2989 608.503V608.503C61.4833 607.688 60.8362 606.72 60.3948 605.654C59.9534 604.589 59.7262 603.447 59.7262 602.294C59.7262 601.14 59.9534 599.998 60.3948 598.933C60.8362 597.868 61.4833 596.899 62.2989 596.084L157.589 500.794C159.236 499.148 161.469 498.223 163.798 498.223C166.127 498.223 168.361 499.148 170.008 500.794V500.794Z" fill="url(#paint6_linear_205_2)"/>
<defs>
<linearGradient id="paint0_linear_205_2" x1="395.9" y1="62.3368" x2="474.336" y2="-16.0968" gradientUnits="userSpaceOnUse">
<stop stop-color="#ED1E79"/>
<stop offset="1" stop-color="#6B00AA"/>
</linearGradient>
<linearGradient id="paint1_linear_205_2" x1="395.936" y1="86.8069" x2="493.769" y2="-11.0257" gradientUnits="userSpaceOnUse">
<stop stop-color="#ED1E79"/>
<stop offset="1" stop-color="#FFDA00"/>
</linearGradient>
<linearGradient id="paint2_linear_205_2" x1="58.3686" y1="662.072" x2="253.806" y2="466.633" gradientUnits="userSpaceOnUse">
<stop stop-color="#ED1E79"/>
<stop offset="1" stop-color="#FFDA00"/>
</linearGradient>
<linearGradient id="paint3_linear_205_2" x1="43.382" y1="166.606" x2="43.382" y2="113.766" gradientUnits="userSpaceOnUse">
<stop stop-color="#ED1E79"/>
<stop offset="1" stop-color="#FFDA00"/>
</linearGradient>
<linearGradient id="paint4_linear_205_2" x1="505.381" y1="570.212" x2="505.381" y2="517.372" gradientUnits="userSpaceOnUse">
<stop stop-color="#ED1E79"/>
<stop offset="1" stop-color="#FFDA00"/>
</linearGradient>
<linearGradient id="paint5_linear_205_2" x1="230.028" y1="492.724" x2="93.5884" y2="629.162" gradientUnits="userSpaceOnUse">
<stop stop-color="#ED1E79"/>
<stop offset="1" stop-color="#6B00AA"/>
</linearGradient>
<linearGradient id="paint6_linear_205_2" x1="196.391" y1="474.411" x2="26.2083" y2="644.593" gradientUnits="userSpaceOnUse">
<stop stop-color="#ED1E79"/>
<stop offset="1" stop-color="#FFDA00"/>
</linearGradient>
</defs>
</svg>
