<svg xmlns="http://www.w3.org/2000/svg" xmlns:xlink="http://www.w3.org/1999/xlink" width="86.26" height="11.015" viewBox="0 0 86.26 11.015">
  <defs>
    <linearGradient id="linear-gradient" x1="0.5" y1="1.785" x2="0.5" y2="-1.489" gradientUnits="objectBoundingBox">
      <stop offset="0" stop-color="#ed1e79"/>
      <stop offset="1" stop-color="#6b00aa"/>
    </linearGradient>
  </defs>
  <path id="Path_115" data-name="Path 115" d="M1141.447,81.927c-3.169,0-4.712-2.683-6.073-5.05-1.273-2.216-2.373-4.129-4.48-4.129s-3.206,1.913-4.48,4.129c-1.361,2.367-2.9,5.05-6.073,5.05s-4.712-2.683-6.073-5.05c-1.274-2.216-2.373-4.129-4.48-4.129s-3.207,1.913-4.481,4.129c-1.36,2.367-2.9,5.05-6.072,5.05s-4.712-2.683-6.072-5.05c-1.274-2.216-2.373-4.129-4.479-4.129s-3.207,1.913-4.48,4.129c-1.362,2.367-2.9,5.05-6.073,5.05s-4.712-2.683-6.073-5.05c-1.274-2.216-2.373-4.129-4.481-4.129a.918.918,0,0,1,0-1.836c3.169,0,4.712,2.683,6.073,5.05,1.274,2.215,2.373,4.129,4.481,4.129s3.206-1.914,4.48-4.129c1.361-2.367,2.9-5.05,6.073-5.05s4.711,2.682,6.071,5.049c1.274,2.216,2.373,4.13,4.48,4.13s3.206-1.914,4.479-4.129c1.362-2.367,2.9-5.05,6.074-5.05s4.711,2.683,6.073,5.05c1.273,2.215,2.373,4.129,4.48,4.129s3.207-1.914,4.48-4.13c1.361-2.367,2.9-5.049,6.073-5.049s4.711,2.683,6.073,5.05c1.273,2.215,2.373,4.129,4.48,4.129s3.207-1.914,4.48-4.129c1.362-2.367,2.9-5.05,6.074-5.05a.918.918,0,0,1,0,1.836c-2.108,0-3.207,1.913-4.481,4.129C1146.159,79.244,1144.616,81.927,1141.447,81.927Z" transform="translate(-1066.659 -70.912)" fill="url(#linear-gradient)"/>
</svg>
