 
 
 <svg version="1.1" id="Layer_1" xmlns="http://www.w3.org/2000/svg" xmlns:xlink="http://www.w3.org/1999/xlink" x="0px" y="0px" viewBox="0 0 1137.1 1620.2" style="enable-background:new 0 0 1137.1 1620.2;" xml:space="preserve">
          <style type="text/css">
          * {
	font-family: 'Poppins', sans-serif;
}
            .st0{fill:none;stroke:#010101;stroke-width:1.5;stroke-miterlimit:10;}
            .st1{fill:none;stroke:#010101;stroke-width:1.5;stroke-miterlimit:10;stroke-dasharray:4.5,4.5;}
            .st2{fill:#010101;}
            
            .st4{font-size:24px;}
            .st5{fill:#364A5E;stroke:#010101;stroke-width:1.5;}
            .st6{fill:#FFFFFF;}
           
            .st8{font-size:15px;}
            
            .st10{enable-background:new    ;}
            .st11{font-size:12px;}
            .st12{letter-spacing:50;}
            .st13{font-size:21px;}
            .st14{fill:#43B783;}
           
            .st16{fill:#FFFFFF;stroke:#010101;stroke-width:1.5;}
            .st17{fill:#DEDDDD;}
            .st11{
              fill: #fff;
            }
            .st1 {
              stroke:#fff;
            }
            .st17 {
    fill: #5bb784;
}
          </style>
          <path id="XMLID_220_" pointer-events="none" class="st0" d="M686.1,1529.3c22.7-0.3,39-12.8,49-37.3s31.6-36.7,64.8-36.5"></path>
          <path id="XMLID_136_" pointer-events="none" class="st0" d="M801.1,853.5c6.3,37.2,1.5,47.2,25.5,43.9c24-3.3,19.6,17.5-3.3,47.8"></path>
          <path id="XMLID_91_" pointer-events="none" class="st0" d="M472.7,1127.5c40.2-16.8,84.3-26.8,132.5-30"></path>
          <path id="XMLID_149_" pointer-events="none" class="st0" d="M673.9,821.9c-0.2,6.3-8.2,19.4-23.9,39.3
            c-15.8,19.9-9.7,62.6,18.3,128.1c28,65.5,20.4,134.3-22.7,206.4s-54.1,148.9-32.9,230.5c21.2,81.6,20.4,72.8,6.3,100.1"></path>
          <path id="XMLID_96_" pointer-events="none" class="st1" d="M997.7,831.3c-38.6-11.4-70.5-6.1-95.9,15.9"></path>
          <path id="XMLID_103_" pointer-events="none" class="st1" d="M430.3,847.5c-41.7-1.6-70.9-11.2-87.6-29.1
            c-16.7-17.8-42.6-26.9-77.5-27.2"></path>
          <g id="XMLID_4_" transform="translate(481.5,9.5)scale(1.5)">
            <text style="fill:#fff" id="XMLID_6_" transform="matrix(0.6667 0 0 0.6667 -10.5117 18.6444)" class="st2 st3 st4">I use these powerful weapons called</text>
          </g>
          <path id="XMLID_63_" pointer-events="none" class="st0" d="M583.5,120c0.2,9.8,6.3,22.3,18.3,37.3s17.6,32.6,16.8,52.8"></path>
          <path id="XMLID_62_" pointer-events="none" class="st0" d="M618.5,37.5c-23.2,19.8-34.8,47.3-35,82.5"></path>
          <path id="XMLID_61_" pointer-events="none" class="st5" d="M526,209.7h186c2.5,0,4.5,2,4.5,4.5v21c0,2.5-2,4.5-4.5,4.5H526
            c-2.5,0-4.5-2-4.5-4.5v-21C521.5,211.7,523.5,209.7,526,209.7z"></path>
          <text id="XMLID_60_" transform="matrix(1 0 0 1 576.1602 231.2164)" class="st6 st7 st8">PHOTOSHOP</text>
          <path id="XMLID_57_" pointer-events="none" class="st5" d="M526,247.2h186c2.5,0,4.5,2,4.5,4.5v21c0,2.5-2,4.5-4.5,4.5H526
            c-2.5,0-4.5-2-4.5-4.5v-21C521.5,249.2,523.5,247.2,526,247.2z"></path>
          <g id="XMLID_54_" transform="translate(604.5,284.5)scale(1.5)">
            <text id="XMLID_56_" transform="matrix(0.6667 0 0 0.6667 -22.8869 -9.6888)" class="st6 st9 st8">ILLUSTRATOR</text>
          </g>
          <path id="XMLID_53_" pointer-events="none" class="st5" d="M526,284.7h186c2.5,0,4.5,2,4.5,4.5v21c0,2.5-2,4.5-4.5,4.5H526
            c-2.5,0-4.5-2-4.5-4.5v-21C521.5,286.7,523.5,284.7,526,284.7z"></path>
          <text id="XMLID_52_" transform="matrix(1 0 0 1 576.1602 307.2164)" class="st6 st9 st8">ADOBE XD</text>
          <g id="XMLID_47_" transform="translate(264.5,178.5)scale(1.5)">
            <text id="XMLID_49_" transform="matrix(0.6667 0 0 0.6667 16.0177 -14.7446)" class="st10"><tspan x="0" y="0" class="st2 st7 st11 st12">  </tspan><tspan x="54" y="0" class="st2 st7 st11">Image Editing</tspan></text>
          </g>
          <g id="XMLID_44_" transform="translate(323.5,197.5)scale(1.5)">
            <text id="XMLID_46_" transform="matrix(0.6667 0 0 0.6667 -38.8666 -13.3553)" class="st2 st7 st11">Wireframe and Web layouts</text>
          </g>
          <g id="XMLID_41_" transform="translate(47.5,215.5)scale(1.5)">
            <text id="XMLID_42_" transform="matrix(0.6667 0 0 0.6667 189.3865 -13.5221)" class="st7 st11">Web Designing</text>
          </g>
          <g id="XMLID_25_" transform="translate(47.5,215.5)scale(1.5)">
            <text id="XMLID_30_" transform="matrix(0.6667 0 0 0.6667 170.2754 41.6445)" class="st7 st11">Web Designing</text>
          </g>
          <g id="XMLID_31_" transform="translate(47.5,215.5)scale(1.5)">
            <text id="XMLID_35_" transform="matrix(0.6667 0 0 0.6667 510.4423 26.3112)" class="st7 st11">Web Designing</text>
          </g>
          <path id="XMLID_40_" pointer-events="none" class="st1" d="M521,217.5c-18.2-35.2-52.3-56.4-102.5-63.8"></path>
          <path id="XMLID_39_" pointer-events="none" class="st1" d="M521,225c-28.2-30.2-62.3-47.7-102.5-52.5"></path>
          <path id="XMLID_139_" pointer-events="none" class="st1" d="M263.3,922.1c-33.3-24.3-70.2-35.1-110.6-32.3"></path>
          <path id="XMLID_169_" pointer-events="none" class="st1" d="M264.6,925.6c-35.6-20.8-73.4-27.7-113.3-20.8"></path>
          <path id="XMLID_38_" pointer-events="none" class="st1" d="M521,232.5c-38.2-27.2-72.3-40.9-102.5-41.3"></path>
          <g id="XMLID_32_" transform="translate(812.5,256.5)scale(1.5)">
            <text id="XMLID_34_" transform="matrix(0.6667 0 0 0.6667 -7.8351 -14.1891)" class="st2 st7 st11">   Icon designinig</text>
          </g>
          <path id="XMLID_28_" pointer-events="none" class="st1" d="M716,255c21.8-27.2,52.7-40.9,92.5-41.3"></path>
          <path id="XMLID_137_" pointer-events="none" class="st1" d="M904.6,940.7c21.8-27.2,52.7-40.9,92.5-41.3"></path>
          <path id="XMLID_66_" pointer-events="none" class="st1" d="M717.5,271.7c35.7,13,75.6-21.8,109.1-0.2"></path>
          <path id="XMLID_27_" pointer-events="none" class="st1" d="M716,262.5c31.8-20.2,62.7-30.6,92.5-31.2"></path>
          <path id="XMLID_26_" pointer-events="none" class="st1" d="M716,270c41.8-12.2,72.7-18.4,92.5-18.7"></path>
          <g id="XMLID_23_" transform="translate(213.5,290.5)scale(1.5)">
          </g>
          <path id="XMLID_10_" pointer-events="none" class="st1" d="M521,300.5c-38.2-25.2-82.3-33.9-132.5-26.3"></path>
          <path id="XMLID_9_" pointer-events="none" class="st1" d="M521,300.5c-48.2-15.2-92.3-17.7-132.5-7.5"></path>
          <path id="XMLID_2_" pointer-events="none" class="st0" d="M618.5,315c-3.2,39.8,12.8,69.8,47.8,89.8S717.8,484.8,716,525"></path>
          <text id="XMLID_29_" transform="matrix(1 0 0 1 813.1633 213.7166)" class="st7 st11">illustration</text>
          <text id="XMLID_20_" transform="matrix(1 0 0 1 323.5798 296.3233)" class="st7 st11">Prototyping</text>
          <path id="XMLID_143_" pointer-events="none" class="st5" d="M624,535.7h186c2.5,0,4.5,2,4.5,4.5v21c0,2.5-2,4.5-4.5,4.5H624
            c-2.5,0-4.5-2-4.5-4.5v-21C619.5,537.7,621.5,535.7,624,535.7z"></path>
          <g id="XMLID_140_" transform="translate(598.5,247.5)scale(1.5)">
            <text id="XMLID_142_" transform="matrix(0.6667 0 0 0.6667 64.6624 207.1443)" class="st6 st9 st8">HTML</text>
          </g>
          <g id="XMLID_129_" transform="translate(264.5,178.5)scale(1.5)">
            <text id="XMLID_131_" transform="matrix(0.6667 0 0 0.6667 106.3318 203.8109)" class="st2 st9 st11">Advance HTML5</text>
          </g>
          <g id="XMLID_126_" transform="translate(323.5,197.5)scale(1.5)">
            <text id="XMLID_128_" transform="matrix(0.6667 0 0 0.6667 53.5779 205.1445)" class="st2 st9 st11">Semantic HTML&lt;br&gt;</text>
          </g>
          <g id="XMLID_123_" transform="translate(47.5,215.5)scale(1.5)">
            <text id="XMLID_125_" transform="matrix(0.6667 0 0 0.6667 53.4646 205.1445)" class="st2 st9 st11">Dividing page into sections and structuring the DOM properly&lt;br&gt;</text>
          </g>
          <path id="XMLID_122_" pointer-events="none" class="st1" d="M619,543.5c-18.2-35.2-52.3-56.4-102.5-63.8"></path>
          <path id="XMLID_121_" pointer-events="none" class="st1" d="M619,551c-28.2-30.2-62.3-47.7-102.5-52.5"></path>
          <path id="XMLID_120_" pointer-events="none" class="st1" d="M619,558.5c-38.2-27.2-72.3-40.9-102.5-41.3"></path>
          <path id="XMLID_119_" pointer-events="none" class="st1" d="M255.2,905.7c-38.2-27.2-72.3-40.9-102.5-41.3"></path>
          <path id="XMLID_218_" pointer-events="none" class="st5" d="M634.4,674.7h93.7c3.1,0,5.6,2.5,5.6,5.6v26.2c0,3.1-2.5,5.6-5.6,5.6
            h-93.7c-3.1,0-5.6-2.5-5.6-5.6v-26.2C628.7,677.2,631.3,674.7,634.4,674.7z"></path>
          <g id="XMLID_215_" transform="translate(661.5,712.5)scale(1.5)">
            <text id="XMLID_217_" transform="matrix(0.6667 0 0 0.6667 -1.535244e-002 -6.189)" class="st6 st9 st13">CSS</text>
          </g>
          <path id="XMLID_104_" pointer-events="none" class="st5" d="M596.8,1080.7H739c4.7,0,8.5,2.5,8.5,5.6v26.2c0,3.1-3.8,5.6-8.5,5.6
            H596.8c-4.7,0-8.5-2.5-8.5-5.6v-26.2C588.2,1083.2,592.1,1080.7,596.8,1080.7z"></path>
          <g id="XMLID_95_" transform="translate(661.5,712.5)scale(1.5)">
            <text id="XMLID_102_" transform="matrix(0.6667 0 0 0.6667 -31.0154 262.4774)" class="st6 st9 st13">JavaScript</text>
          </g>
          <path id="XMLID_214_" pointer-events="none" class="st0" d="M716,525c0.8,29.8-4.8,52.3-16.8,67.3S681.2,634.8,681,675"></path>
          <g id="XMLID_202_" transform="translate(319.5,768.5)scale(1.5)">
          </g>
          <path id="XMLID_193_" pointer-events="none" class="st14" d="M408.2,820.2h111c2.5,0,4.5,2,4.5,4.5v21c0,2.5-2,4.5-4.5,4.5h-111
            c-2.5,0-4.5-2-4.5-4.5v-21C403.7,822.2,405.8,820.2,408.2,820.2z"></path>
          <g id="XMLID_190_" transform="translate(423.5,857.5)scale(1.5)">
            <text id="XMLID_192_" transform="matrix(0.6667 0 0 0.6667 7.6651 -11.8049)" class="st6 st15 st8">Layouts</text>
          </g>
          <g id="XMLID_182_" transform="translate(938.5,757.5)scale(1.5)">
            <text id="XMLID_184_" transform="matrix(0.6667 0 0 0.6667 -28.0062 36.4777)" class="st6 st9 st8">CSS Preprocessor&lt;br&gt;</text>
          </g>
          <path id="XMLID_106_" pointer-events="none" class="st0" d="M667.2,897.5c34.3-0.5,56.5-9,66.5-25.5s23.7-24.7,41-24.5"></path>
          <ellipse id="XMLID_144_" pointer-events="none" class="st16" cx="673.7" cy="805.7" rx="17.3" ry="17.3"></ellipse>
          <path id="XMLID_135_" pointer-events="none" class="st0" d="M523.5,835c40.2-16.8,84.3-26.8,132.5-30"></path>
          <ellipse id="XMLID_134_" pointer-events="none" class="st16" cx="650.7" cy="897.7" rx="17.3" ry="17.3"></ellipse>
          <path id="XMLID_132_" pointer-events="none" class="st0" d="M388.5,761.2c10.2,12.3,25.3,21,45.3,26s29.9,15.9,29.8,32.8"></path>
          <path id="XMLID_107_" pointer-events="none" class="st0" d="M324.7,913.7c12.7-29.3,36.5-36.8,71.5-22.3s57.4,0.7,67.3-41.5"></path>
          <path id="XMLID_101_" pointer-events="none" class="st0" d="M856,831.2c-0.2-12.2,14.1-18.3,42.7-18.3s42.9-7.2,42.8-21.7"></path>
          <path id="XMLID_98_" pointer-events="none" class="st1" d="M940.7,796.3c2.3-20.2-17.5-37.6-59.2-52.4
            c-41.8-14.8-59.7-34.2-53.8-58.3"></path>
          <path id="XMLID_189_" pointer-events="none" class="st14" d="M773.4,832.2h126.2c3.3,0,5.9,2,5.9,4.5v21c0,2.5-2.6,4.5-5.9,4.5
            H773.4c-3.3,0-5.9-2-5.9-4.5v-21C767.5,834.2,770.1,832.2,773.4,832.2z"></path>
          <path id="XMLID_97_" pointer-events="none" class="st1" d="M939.9,791.2c10.3-11.8,11.9-22.8,4.9-33.1s-5-22.8,6.1-37.6"></path>
          <path id="XMLID_58_" pointer-events="none" class="st0" d="M681,712.5c0,0-2.5,25-7.5,75"></path>
          <text id="XMLID_50_" transform="matrix(1 0 0 1 22.5798 791.2173)" class="st7 st11">Responsive Web Design and Media Queries</text>
          <text id="XMLID_133_" transform="matrix(1 0 0 1 55.5798 864.4664)" class="st7 st11">Twitter Bootstrap</text>
          <text id="XMLID_145_" transform="matrix(1 0 0 1 63.5799 891.3704)" class="st7 st11">Materialize CSS</text>
          <text id="XMLID_13_" transform="matrix(1 0 0 1 305.5798 762.2161)" class="st7 st11">Grid &amp; Flexbox</text>
          <path id="XMLID_109_" pointer-events="none" class="st1" d="M382.3,1118.4c-41.6,3.3-71.7-2.9-90.4-18.6s-45.4-21.7-80.2-17.9"></path>
          <path id="XMLID_99_" pointer-events="none" class="st14" d="M357.5,1112.7h111c2.5,0,4.5,2,4.5,4.5v21c0,2.5-2,4.5-4.5,4.5h-111
            c-2.5,0-4.5-2-4.5-4.5v-21C353,1114.7,355,1112.7,357.5,1112.7z"></path>
          <g id="XMLID_92_" transform="translate(423.5,857.5)scale(1.5)">
            <text id="XMLID_94_" transform="matrix(0.6667 0 0 0.6667 -32.8426 183.1853)" class="st6 st15 st8">Animation</text>
          </g>
          <path id="XMLID_90_" pointer-events="none" class="st0" d="M337.7,1053.7c10.2,12.3,25.3,21,45.3,26s29.9,15.9,29.8,32.8"></path>
          <path id="XMLID_89_" pointer-events="none" class="st0" d="M274,1206.2c12.7-29.3,36.5-36.8,71.5-22.3s57.4,0.7,67.3-41.5"></path>
          <text id="XMLID_88_" transform="matrix(1 0 0 1 132.6967 1086.7164)" class="st7 st11">SVG Animation</text>
          <path id="XMLID_15_" pointer-events="none" class="st1" d="M353,1127.5c-35.2-0.7-59.8,5.5-74-2.9c-14.1-8.4-26.2-15.5-55.8-15.6"></path>
          <text id="XMLID_14_" transform="matrix(1 0 0 1 184.8003 1109.4553)" class="st7 st11">wow.js</text>
          <path id="XMLID_17_" pointer-events="none" class="st1" d="M353,1127.5c-35.2-0.7-59,21.1-73.1,12.7c-14.1-8.4-35.9-12.6-65.5-12.7"></path>
          <text id="XMLID_16_" transform="matrix(1 0 0 1 152.7361 1130.4658)" class="st7 st11">scrollMagic</text>
          <text id="XMLID_87_" transform="matrix(1 0 0 1 244.3187 1054.701)" class="st7 st11">Greensock/GSAP</text>
          <text id="XMLID_86_" transform="matrix(1 0 0 1 174.4386 1207.4512)" class="st7 st11">Canvas animation</text>
          <text id="XMLID_3_" transform="matrix(1 0 0 1 813.1633 681.5732)" class="st15 st11">CSS3 Keyframe</text>
          <text id="XMLID_68_" transform="matrix(1 0 0 1 920.1633 720.5285)" class="st15 st11">Transform properties</text>
          <text id="XMLID_64_" transform="matrix(1 0 0 1 826.6067 274.7109)" class="st15 st11">SVG Export</text>
          <g id="XMLID_158_" transform="translate(47.5,215.5)scale(1.5)">
            <text id="XMLID_159_" transform="matrix(0.6667 0 0 0.6667 530.0728 585.97)" class="st7 st11">jQuery</text>
          </g>
          <g id="XMLID_155_" transform="translate(812.5,256.5)scale(1.5)">
            <text id="XMLID_157_" transform="matrix(0.6667 0 0 0.6667 18.462 545.4697)" class="st9 st11">DOM manipulation</text>
          </g>
          <path id="XMLID_154_" pointer-events="none" class="st1" d="M745.4,1094.5c21.8-27.2,52.7-40.9,92.5-41.3"></path>
          <path id="XMLID_153_" pointer-events="none" class="st1" d="M747,1111.2c35.7,13,75.6-21.8,109.1-0.2"></path>
          <path id="XMLID_152_" pointer-events="none" class="st1" d="M745.4,1102c31.8-20.2,62.7-30.6,92.5-31.3"></path>
          <path id="XMLID_151_" pointer-events="none" class="st1" d="M745.4,1109.5c41.8-12.2,72.7-18.4,92.5-18.8"></path>
          <text id="XMLID_148_" transform="matrix(1 0 0 1 842.609 1053.2048)" class="st9 st11">Syntax and basic operations</text>
          <text id="XMLID_146_" transform="matrix(1 0 0 1 856.0524 1114.1991)" class="st15 st11">TweenMax</text>
          <text id="XMLID_67_" transform="matrix(1 0 0 1 997.7074 835.2166)" class="st15 st11">SVG Animation</text>
          <text id="XMLID_138_" transform="matrix(1 0 0 1 999.7072 902.7166)" class="st15 st11">Animate.css</text>
          <g id="XMLID_186_" transform="translate(802.5,869.5)scale(1.5)">
            <text id="XMLID_188_" transform="matrix(0.6667 0 0 0.6667 -13.6143 -10.8555)" class="st6 st15 st8">CSS Animation</text>
          </g>
          <path id="XMLID_112_" pointer-events="none" class="st14" d="M259.7,898.7h111c2.5,0,4.5,2,4.5,4.5v21c0,2.5-2,4.5-4.5,4.5h-111
            c-2.5,0-4.5-2-4.5-4.5v-21C255.2,900.7,257.3,898.7,259.7,898.7z"></path>
          <g id="XMLID_65_" transform="translate(423.5,857.5)scale(1.5)">
            <text id="XMLID_111_" transform="matrix(0.6667 0 0 0.6667 -106.8664 40.5283)" class="st6 st15 st8">css framework</text>
          </g>
          <path id="XMLID_118_" pointer-events="none" class="st14" d="M742,925.7h162.6c3.6,0,6.6,2,6.6,4.5v21c0,2.5-3,4.5-6.6,4.5H742
            c-3.6,0-6.6-2-6.6-4.5v-21C735.4,927.7,738.4,925.7,742,925.7z"></path>
          <g id="XMLID_115_" transform="translate(423.5,857.5)scale(1.5)">
            <text id="XMLID_117_" transform="matrix(0.6667 0 0 0.6667 213.2589 58.5283)" class="st6 st15 st8">Animation framework</text>
          </g>
          <path id="XMLID_160_" pointer-events="none" class="st5" d="M488.5,1328.7h246c2.5,0,4.5,2,4.5,4.5v21c0,2.5-2,4.5-4.5,4.5h-246
            c-2.5,0-4.5-2-4.5-4.5v-21C484,1330.7,486,1328.7,488.5,1328.7z"></path>
          <path id="XMLID_180_" pointer-events="none" class="st5" d="M482.2,1502.2h246c2.5,0,4.5,2,4.5,4.5v21c0,2.5-2,4.5-4.5,4.5h-246
            c-2.5,0-4.5-2-4.5-4.5v-21C477.7,1504.2,479.7,1502.2,482.2,1502.2z"></path>
          <g id="XMLID_37_" transform="translate(613.5,532.5)scale(1.5)">
            <text id="XMLID_59_" transform="matrix(0.6667 0 0 0.6667 -71.0909 545.811)" class="st6 st9 st8">General Development Skills</text>
          </g>
          <path id="XMLID_36_" pointer-events="none" class="st1" d="M483.5,1336.5c-43.2-35.2-94.8-48.9-155-41.3"></path>
          <path id="XMLID_24_" pointer-events="none" class="st1" d="M483.5,1336.5c-43.2-20.2-94.8-26.4-155-18.8"></path>
          <path id="XMLID_22_" pointer-events="none" class="st1" d="M483.5,1344c-53.2-20.2-104.8-21.4-155-3.8"></path>
          <path id="XMLID_21_" pointer-events="none" class="st1" d="M483.5,1351.5c-63.2-5.2-114.8,6.1-155,33.8"></path>
          <path id="XMLID_19_" pointer-events="none" class="st1" d="M483.5,1351.5c-63.2-0.2-114.8,18.6-155,56.3"></path>
          <path id="XMLID_18_" pointer-events="none" class="st1" d="M483.5,1344c-53.2-10.2-104.8-3.9-155,18.8"></path>
          <g id="XMLID_177_" transform="translate(613.5,532.5)scale(1.5)">
            <text id="XMLID_179_" transform="matrix(0.6667 0 0 0.6667 -41.5466 660.6436)" class="st6 st9 st8">Others Skills</text>
          </g>
          <path id="XMLID_176_" pointer-events="none" class="st1" d="M471.8,1505.5c-43.2-35.2-94.8-48.9-155-41.3"></path>
          <path id="XMLID_175_" pointer-events="none" class="st1" d="M471.8,1505.5c-43.2-20.2-94.8-26.4-155-18.8"></path>
          <path id="XMLID_174_" pointer-events="none" class="st1" d="M471.8,1513c-53.2-20.2-104.8-21.4-155-3.8"></path>
          <path id="XMLID_173_" pointer-events="none" class="st1" d="M471.8,1520.5c-63.2-5.2-114.8,6.1-155,33.8"></path>
          <path id="XMLID_172_" pointer-events="none" class="st1" d="M471.8,1520.5c-63.2-0.2-114.8,18.6-155,56.3"></path>
          <path id="XMLID_171_" pointer-events="none" class="st1" d="M471.8,1513c-53.2-10.2-104.8-3.9-155,18.8"></path>
          <g id="XMLID_161_" transform="translate(198.5,485.5)scale(1.5)">
            <text id="XMLID_163_" transform="matrix(0.6667 0 0 0.6667 -69.9938 541.8112)" class="st2 st9 st11">GIT - Version Control (GitHub, GitLab)</text>
          </g>
          <text id="XMLID_7_" transform="matrix(1 0 0 1 281.2466 1319.2167)" class="st15 st11">XAMPP</text>
          <text id="XMLID_164_" transform="matrix(1 0 0 1 260.2466 1346.2167)" class="st15 st11">Bassic PHP</text>
          <text id="XMLID_165_" transform="matrix(1 0 0 1 288.2466 1365.2167)" class="st15 st11">mySql</text>
          <text id="XMLID_168_" transform="matrix(1 0 0 1 259.5265 1385.2167)" class="st15 st11">blade, twig, </text>
          <text id="XMLID_166_" transform="matrix(1 0 0 1 266.2466 1410.2167)" class="st15 st11">Wordpress</text>
          <text id="XMLID_167_" transform="matrix(1 0 0 1 53.2466 909.2166)" class="st15 st11">Semantic UI CSS</text>
          <text id="XMLID_205_" transform="matrix(1 0 0 1 227.35 1467.2167)" class="st15 st11">Sublime Text 3</text>
          <text id="XMLID_207_" transform="matrix(1 0 0 1 235.3498 1489.2167)" class="st15 st11">Visual Studio</text>
          <text id="XMLID_208_" transform="matrix(1 0 0 1 177.8001 1512.2167)" class="st15 st11">wireframing - Balsamiq</text>
          <path id="XMLID_209_" pointer-events="none" class="st1" d="M576.2,744.3c29.7,0.7,23.1,11.6,52.3,0.6c28.6-10.7,47.7-16.4,53-32.8"></path>
          <text id="XMLID_206_" transform="matrix(1 0 0 1 511.4966 747.7944)" class="st15 st11">SASS, Less</text>
          <text id="XMLID_210_" transform="matrix(1 0 0 1 214.3499 1533.2167)" class="st15 st11">Windows &amp; Mac</text>
          <text id="XMLID_228_" transform="matrix(1 0 0 1 178.3501 1554.2167)" class="st15 st11">marvel prototyping tool</text>
          <path id="XMLID_219_" pointer-events="none" class="st1" d="M905.6,1449.6c0,0,34.6-44.2,103.8-132.5"></path>
          <path id="XMLID_213_" pointer-events="none" class="st1" d="M931.9,1457.1c16.8-20.2,27.8-32.8,32.8-37.8s19.9-16.6,44.8-34.8"></path>
          <path id="XMLID_230_" pointer-events="none" class="st1" d="M935,1464.7c20.3-16.7,33.3-27.1,39.1-31.1c5.8-4,22.6-12.6,50.4-25.9"></path>
          <path id="XMLID_212_" pointer-events="none" class="st1" d="M927.1,1449.3c10-15,20-30,30-45s27.4-33.3,52.3-54.8"></path>
          <path id="XMLID_224_" pointer-events="none" class="st14" d="M805.4,1440.3h122.9c3.2,0,5.8,2,5.8,4.5v21c0,2.5-2.6,4.5-5.8,4.5
            H805.4c-3.2,0-5.8-2-5.8-4.5v-21C799.6,1442.4,802.2,1440.3,805.4,1440.3z"></path>
          <text id="XMLID_211_" transform="matrix(1 0 0 1 997.7074 1314.549)" class="st15 st11">After Effects</text>
          <text id="XMLID_226_" transform="matrix(1 0 0 1 999.7069 1346.2166)" class="st15 st11">adobe premiere pro</text>
          <text id="XMLID_227_" transform="matrix(1 0 0 1 997.7077 1379.5909)" class="st15 st11">Crazytalk animator</text>
          <text id="XMLID_222_" transform="matrix(1 0 0 1 1009.3718 1407.7169)" class="st15 st11">adobe edge animate</text>
          <g id="XMLID_223_" transform="translate(613.5,532.5)scale(1.5)">
            <text id="XMLID_232_" transform="matrix(0.6667 0 0 0.6667 128.9213 619.772)" class="st6 st9 st8">Animation Tools</text>
          </g>
          <text id="XMLID_221_" transform="matrix(1 0 0 1 235.3496 1576.7167)" class="st15 st11">Video Editing</text>
          <rect id="XMLID_1_" x="547.9" y="393.1" class="st17" width="274" height="41"></rect>
          <g id="XMLID_8_" transform="translate(481.5,9.5)scale(1.5)">
            <text id="XMLID_12_" transform="matrix(0.6667 0 0 0.6667 79.6915 274.0537)" class="st2 st15 st4">Developement</text>
          </g>
          </svg>
